SplineFontDB: 3.0
FontName: Renner-it-Thin
FullName: Renner* Thin
FamilyName: Renner* Thin
Weight: Thin
Copyright: This typeface is licensed under the SIL open font license.
UComments: "2016-6-10: Created with FontForge (http://fontforge.org)"
Version: 002.300
ItalicAngle: 0
UnderlinePosition: -100
UnderlineWidth: 50
Ascent: 800
Descent: 200
InvalidEm: 0
LayerCount: 2
Layer: 0 0 "Back" 1
Layer: 1 0 "Fore" 0
XUID: [1021 31 -699969567 16188444]
FSType: 0
OS2Version: 0
OS2_WeightWidthSlopeOnly: 0
OS2_UseTypoMetrics: 1
CreationTime: 1465610489
ModificationTime: 1514602200
PfmFamily: 33
TTFWeight: 200
TTFWidth: 5
LineGap: 100
VLineGap: 0
OS2TypoAscent: 800
OS2TypoAOffset: 0
OS2TypoDescent: -200
OS2TypoDOffset: 0
OS2TypoLinegap: 100
OS2WinAscent: 900
OS2WinAOffset: 0
OS2WinDescent: 300
OS2WinDOffset: 0
HheadAscent: 900
HheadAOffset: 0
HheadDescent: -200
HheadDOffset: 0
OS2CapHeight: 700
OS2XHeight: 460
OS2Vendor: 'PfEd'
Lookup: 1 0 0 "alt a" { "simple a"  } ['ss01' ('DFLT' <'dflt' > 'latn' <'dflt' > ) ]
Lookup: 258 0 0 "Lets get our kern on" { "kernin like nobodys business" [150,0,4] } ['kern' ('DFLT' <'dflt' > 'latn' <'dflt' > ) ]
MarkAttachClasses: 1
DEI: 91125
KernClass2: 15 14 "kernin like nobodys business"
 3 A L
 7 D G O Q
 5 F P Y
 5 K X Z
 1 T
 1 U
 3 V W
 9 a c g q s
 7 b e o p
 7 d i j l
 3 f t
 5 h m n
 5 k x z
 7 r v w y
 1 A
 7 C G O Q
 1 T
 1 U
 5 V W Y
 3 X Z
 11 a m n p r s
 11 b h i j k l
 11 c d e g o q
 3 f t
 7 u v w y
 3 x z
 12 period comma

StartChar: H
Encoding: 72 72 0
Width: 685
VWidth: 0
Flags: HMW
LayerCount: 2
Fore
SplineSet
112 356 m 1
 112 387 l 5
 587 387 l 5
 587 356 l 1
 112 356 l 1
565 700 m 1
 595 700 l 1
 595 0 l 1
 565 0 l 1
 565 700 l 1
90 700 m 1
 120 700 l 1
 120 0 l 1
 90 0 l 1
 90 700 l 1
EndSplineSet
EndChar

StartChar: O
Encoding: 79 79 1
Width: 774
VWidth: 0
Flags: HMW
LayerCount: 2
Fore
SplineSet
80 350 m 0
 80 162 209 21 387 21 c 4
 565 21 694 162 694 350 c 0
 694 538 565 679 387 679 c 0
 209 679 80 538 80 350 c 0
50 350 m 0
 50 559 193 708 387 708 c 0
 581 708 724 559 724 350 c 0
 724 141 581 -8 387 -8 c 0
 193 -8 50 141 50 350 c 0
EndSplineSet
EndChar

StartChar: I
Encoding: 73 73 2
Width: 200
VWidth: 0
Flags: HMW
LayerCount: 2
Fore
SplineSet
85 700 m 1
 115 700 l 5
 115 0 l 5
 85 0 l 1
 85 700 l 1
EndSplineSet
EndChar

StartChar: C
Encoding: 67 67 3
Width: 685
VWidth: 0
Flags: HMW
LayerCount: 2
Fore
SplineSet
83 350 m 0
 83 154 201 22 380 22 c 0
 479 22 551 60 605 112 c 1
 605 72 l 1
 546 20 482 -8 380 -8 c 0
 186 -8 50 141 50 350 c 0
 50 559 186 708 380 708 c 0
 482 708 546 680 605 628 c 1
 605 585 l 5
 551 637 479 678 380 678 c 0
 201 678 83 546 83 350 c 0
EndSplineSet
EndChar

StartChar: E
Encoding: 69 69 4
Width: 530
VWidth: 0
Flags: HMW
LayerCount: 2
Fore
SplineSet
112 0 m 5
 112 29 l 5
 450 29 l 5
 450 0 l 5
 112 0 l 5
112 671 m 5
 112 700 l 5
 450 700 l 5
 450 671 l 5
 112 671 l 5
112 366 m 5
 112 394 l 5
 430 394 l 5
 430 366 l 5
 112 366 l 5
90 700 m 5
 120 700 l 5
 120 0 l 5
 90 0 l 5
 90 700 l 5
EndSplineSet
EndChar

StartChar: F
Encoding: 70 70 6
Width: 470
VWidth: 0
Flags: HMW
LayerCount: 2
Fore
SplineSet
112 671 m 5
 112 700 l 5
 410 700 l 1
 410 671 l 1
 112 671 l 5
112 354 m 5
 112 383 l 5
 400 383 l 1
 400 354 l 1
 112 354 l 5
90 700 m 1
 120 700 l 5
 120 0 l 5
 90 0 l 1
 90 700 l 1
EndSplineSet
EndChar

StartChar: G
Encoding: 71 71 7
Width: 765
VWidth: 0
Flags: HMW
LayerCount: 2
Fore
SplineSet
420 321 m 1
 420 355 l 1
 677 355 l 1
 677 321 l 1
 420 321 l 1
710 355 m 1
 710 161 594 -8 390 -8 c 0
 196 -8 50 148 50 350 c 4
 50 552 196 708 390 708 c 1
 390 676 l 1
 207 676 82 533 82 350 c 0
 82 172 202 24 390 24 c 0
 573 24 677 172 677 355 c 1
 710 355 l 1
648 539 m 1
 594 623 497 676 390 676 c 1
 390 708 l 1
 519 708 616 648 676 561 c 1
 648 539 l 1
EndSplineSet
EndChar

StartChar: T
Encoding: 84 84 8
Width: 430
VWidth: 0
Flags: HMW
LayerCount: 2
Fore
SplineSet
20 671 m 1
 20 700 l 1
 410 700 l 5
 410 671 l 5
 20 671 l 1
200 700 m 1
 230 700 l 5
 230 0 l 5
 200 0 l 1
 200 700 l 1
EndSplineSet
EndChar

StartChar: L
Encoding: 76 76 9
Width: 430
VWidth: 0
Flags: HMW
LayerCount: 2
Fore
SplineSet
97 0 m 1
 97 29 l 5
 410 29 l 5
 410 0 l 1
 97 0 l 1
90 700 m 1
 120 700 l 1
 120 0 l 1
 90 0 l 1
 90 700 l 1
EndSplineSet
EndChar

StartChar: D
Encoding: 68 68 10
Width: 645
VWidth: 0
Flags: HMW
LayerCount: 2
Fore
SplineSet
112 0 m 5
 112 30 l 5
 260 30 l 5
 260 0 l 5
 112 0 l 5
112 670 m 5
 112 700 l 5
 260 700 l 5
 260 670 l 5
 112 670 l 5
90 700 m 5
 120 700 l 5
 120 0 l 5
 90 0 l 5
 90 700 l 5
260 30 m 5
 448 30 563 152 563 350 c 4
 563 538 448 670 260 670 c 5
 260 700 l 5
 464 700 595 559 595 350 c 4
 595 141 464 0 260 0 c 5
 260 30 l 5
EndSplineSet
EndChar

StartChar: Q
Encoding: 81 81 11
Width: 771
VWidth: 0
Flags: HMW
LayerCount: 2
Fore
SplineSet
80 350 m 0
 80 162 209 21 387 21 c 0
 565 21 694 162 694 350 c 0
 694 538 565 679 387 679 c 4
 209 679 80 538 80 350 c 0
50 350 m 0
 50 559 193 708 387 708 c 0
 581 708 724 559 724 350 c 0
 724 141 581 -8 387 -8 c 0
 193 -8 50 141 50 350 c 0
376 300 m 1
 416 300 l 1
 736 0 l 1
 696 0 l 1
 376 300 l 1
EndSplineSet
EndChar

StartChar: A
Encoding: 65 65 12
Width: 640
VWidth: 0
Flags: HMW
LayerCount: 2
Fore
SplineSet
137 220 m 1
 137 252 l 1
 507 252 l 1
 507 220 l 1
 137 220 l 1
320 650 m 5
 320 725 l 1
 625 0 l 1
 590 0 l 1
 320 650 l 5
320 725 m 1
 320 650 l 1
 50 0 l 1
 15 0 l 1
 320 725 l 1
EndSplineSet
EndChar

StartChar: R
Encoding: 82 82 13
Width: 503
VWidth: 0
Flags: HMW
LayerCount: 2
Fore
SplineSet
240 294 m 1
 240 323 l 1
 360 323 445 381 445 497 c 0
 445 613 360 671 240 671 c 1
 240 700 l 1
 375 700 476 636 476 497 c 0
 476 358 375 294 240 294 c 1
112 294 m 1
 112 323 l 1
 240 323 l 1
 240 294 l 1
 112 294 l 1
112 671 m 1
 112 700 l 1
 240 700 l 1
 240 671 l 1
 112 671 l 1
120 700 m 1025
214 317 m 1
 248 317 l 5
 493 0 l 1
 454 0 l 1
 214 317 l 1
112 671 m 1
 112 700 l 1
 240 700 l 1
 240 671 l 1
 112 671 l 1
90 700 m 1
 120 700 l 1
 120 0 l 1
 90 0 l 1
 90 700 l 1
EndSplineSet
EndChar

StartChar: V
Encoding: 86 86 14
Width: 640
VWidth: 0
Flags: HMW
LayerCount: 2
Fore
SplineSet
321 40 m 5
 320 -25 l 1
 15 700 l 1
 50 700 l 1
 321 40 l 5
320 -25 m 1
 320 40 l 5
 590 700 l 1
 625 700 l 1
 320 -25 l 1
EndSplineSet
EndChar

StartChar: M
Encoding: 77 77 15
Width: 830
VWidth: 0
Flags: HMW
LayerCount: 2
Fore
SplineSet
146 635 m 5
 135 725 l 1
 420 125 l 1
 415 65 l 1
 146 635 l 5
135 725 m 1
 152 635 l 1
 90 0 l 1
 60 0 l 1
 135 725 l 1
678 635 m 1
 695 725 l 1
 770 0 l 1
 740 0 l 1
 678 635 l 1
695 725 m 1
 684 635 l 1
 415 65 l 1
 410 125 l 1
 695 725 l 1
EndSplineSet
EndChar

StartChar: W
Encoding: 87 87 16
Width: 990
VWidth: 0
Flags: HMW
LayerCount: 2
Fore
SplineSet
718 30 m 1
 705 -25 l 1
 485 660 l 1
 495 725 l 1
 718 30 l 1
705 -25 m 1
 701 50 l 5
 938 700 l 1
 970 700 l 1
 705 -25 l 1
289 50 m 1
 285 -25 l 1
 20 700 l 1
 52 700 l 1
 289 50 l 1
285 -25 m 1
 272 30 l 1
 495 725 l 1
 505 660 l 1
 285 -25 l 1
EndSplineSet
EndChar

StartChar: N
Encoding: 78 78 17
Width: 665
VWidth: 0
Flags: HMW
LayerCount: 2
Fore
SplineSet
65 661 m 5
 50 725 l 1
 600 39 l 1
 615 -25 l 1
 65 661 l 5
585 700 m 1
 615 700 l 1
 615 -25 l 1
 585 45 l 1
 585 700 l 1
50 725 m 1
 80 650 l 5
 80 0 l 1
 50 0 l 1
 50 725 l 1
EndSplineSet
EndChar

StartChar: a
Encoding: 97 97 18
Width: 455
VWidth: 0
Flags: HMW
LayerCount: 2
Fore
SplineSet
355 330 m 5
 385 330 l 5
 385 0 l 5
 355 0 l 5
 355 330 l 5
73 377 m 5
 57 403 l 5
 100 434 150 470 233 470 c 4
 343 470 385 419 385 330 c 5
 355 330 l 5
 355 406 313 440 233 440 c 4
 157 440 115 410 73 377 c 5
71 135 m 4
 71 59 118 18 198 18 c 4
 278 18 355 74 355 160 c 5
 360 130 l 5
 360 51 298 -10 193 -10 c 4
 118 -10 40 31 40 135 c 4
 40 232 130 281 221 281 c 4
 299 281 354 254 378 230 c 5
 378 202 l 5
 330 237 279 253 221 253 c 4
 137 253 71 211 71 135 c 4
EndSplineSet
Substitution2: "simple a" a.alt
EndChar

StartChar: X
Encoding: 88 88 19
Width: 520
VWidth: 0
Flags: HMW
LayerCount: 2
Fore
SplineSet
45 700 m 1
 82 700 l 1
 500 0 l 1
 463 0 l 5
 45 700 l 1
448 700 m 5
 485 700 l 1
 57 0 l 1
 20 0 l 1
 448 700 l 5
EndSplineSet
EndChar

StartChar: K
Encoding: 75 75 20
Width: 489
VWidth: 0
Flags: HMW
LayerCount: 2
Fore
SplineSet
97 380 m 1
 139 380 l 1
 474 0 l 1
 432 0 l 1
 97 380 l 1
418 700 m 1
 459 700 l 1
 144 370 l 1
 103 370 l 1
 418 700 l 1
85 700 m 1
 115 700 l 1
 115 0 l 1
 85 0 l 1
 85 700 l 1
EndSplineSet
EndChar

StartChar: Y
Encoding: 89 89 21
Width: 527
VWidth: 0
Flags: HMW
LayerCount: 2
Fore
SplineSet
243 295 m 1
 275 295 l 1
 275 0 l 1
 243 0 l 1
 243 295 l 1
15 700 m 1
 53 700 l 5
 268 300 l 5
 245 280 l 1
 15 700 l 1
474 700 m 1
 512 700 l 1
 272 280 l 1
 249 300 l 1
 474 700 l 1
EndSplineSet
EndChar

StartChar: B
Encoding: 66 66 22
Width: 528
VWidth: 0
Flags: HMW
LayerCount: 2
Fore
SplineSet
220 376 m 1
 220 394 l 5
 300 394 398 424 398 535 c 0
 398 621 330 671 220 671 c 1
 220 700 l 1
 355 700 428 634 428 535 c 0
 428 406 330 376 220 376 c 1
240 0 m 1
 240 29 l 1
 360 29 435 79 435 195 c 0
 435 311 320 366 240 366 c 1
 240 389 l 1
 335 389 468 324 468 195 c 0
 468 56 380 0 240 0 c 1
117 0 m 1
 117 29 l 1
 240 29 l 1
 240 0 l 1
 117 0 l 1
117 671 m 1
 117 700 l 1
 220 700 l 1
 220 671 l 1
 117 671 l 1
117 366 m 1
 117 394 l 5
 240 394 l 5
 240 366 l 1
 117 366 l 1
90 700 m 1
 120 700 l 1
 120 0 l 1
 90 0 l 1
 90 700 l 1
EndSplineSet
EndChar

StartChar: Z
Encoding: 90 90 23
Width: 545
VWidth: 0
Flags: HMW
LayerCount: 2
Fore
SplineSet
20 0 m 1
 65 32 l 5
 510 32 l 1
 510 0 l 1
 20 0 l 1
40 668 m 1
 40 700 l 1
 530 700 l 1
 485 668 l 1
 40 668 l 1
490 700 m 1
 530 700 l 1
 60 0 l 5
 20 0 l 1
 490 700 l 1
EndSplineSet
EndChar

StartChar: o
Encoding: 111 111 24
Width: 524
VWidth: 0
Flags: HMW
LayerCount: 2
Fore
SplineSet
45 230 m 4
 45 371 137 468 262 468 c 4
 387 468 479 371 479 230 c 4
 479 89 387 -8 262 -8 c 4
 137 -8 45 89 45 230 c 4
75 230 m 4
 75 106 155 22 262 22 c 4
 369 22 449 106 449 230 c 4
 449 354 369 438 262 438 c 4
 155 438 75 354 75 230 c 4
EndSplineSet
EndChar

StartChar: J
Encoding: 74 74 25
Width: 211
VWidth: 0
Flags: HMW
LayerCount: 2
Fore
SplineSet
121 -60 m 1
 96 -50 l 1
 96 700 l 1
 121 700 l 1
 121 -60 l 1
-106 -145 m 5
 -82 -169 -49 -195 -3 -195 c 4
 67 -195 96 -166 96 -50 c 1
 121 -60 l 1
 121 -169 92 -220 -2 -220 c 0
 -55 -220 -105 -185 -120 -165 c 1
 -106 -145 l 5
EndSplineSet
EndChar

StartChar: t
Encoding: 116 116 26
Width: 210
VWidth: 0
Flags: HMW
LayerCount: 2
Fore
SplineSet
15 460 m 1
 195 460 l 1
 195 430 l 5
 15 430 l 5
 15 460 l 1
90 620 m 1
 120 620 l 1
 120 0 l 1
 90 0 l 1
 90 620 l 1
EndSplineSet
EndChar

StartChar: d
Encoding: 100 100 27
Width: 565
VWidth: 0
Flags: HMW
LayerCount: 2
Fore
SplineSet
455 780 m 1
 485 780 l 1
 485 0 l 1
 455 0 l 1
 455 780 l 1
45 230 m 0
 45 377 143 468 268 468 c 4
 391 468 471 359 471 230 c 0
 471 101 391 -8 268 -8 c 4
 143 -8 45 83 45 230 c 0
76 230 m 0
 76 94 175 22 265 22 c 0
 375 22 455 114 455 230 c 0
 455 346 375 438 265 438 c 0
 175 438 76 366 76 230 c 0
EndSplineSet
EndChar

StartChar: l
Encoding: 108 108 28
Width: 200
VWidth: 0
Flags: HMW
LayerCount: 2
Fore
SplineSet
85 780 m 5
 115 780 l 1
 115 0 l 1
 85 0 l 5
 85 780 l 5
EndSplineSet
EndChar

StartChar: i
Encoding: 105 105 29
Width: 226
VWidth: 0
Flags: HMW
LayerCount: 2
Fore
SplineSet
85 675 m 0
 85 691 96 703 113 703 c 0
 130 703 141 691 141 675 c 0
 141 659 130 647 113 647 c 0
 96 647 85 659 85 675 c 0
98 460 m 5
 128 460 l 5
 128 0 l 5
 98 0 l 5
 98 460 l 5
EndSplineSet
EndChar

StartChar: r
Encoding: 114 114 30
Width: 313
VWidth: 0
Flags: HMW
LayerCount: 2
Fore
SplineSet
115 460 m 1
 115 0 l 1
 85 0 l 1
 85 460 l 1
 115 460 l 1
280 403 m 1
 267 420 247 435 211 435 c 4
 151 435 115 346 115 280 c 1
 106 280 l 1
 106 389 137 468 222 468 c 0
 255 468 275 453 298 431 c 1
 280 403 l 1
EndSplineSet
EndChar

StartChar: c
Encoding: 99 99 31
Width: 473
VWidth: 0
Flags: HMW
LayerCount: 2
Fore
SplineSet
71 230 m 0
 71 114 148 22 263 22 c 0
 319.930664062 22 377.088867188 33.5595703125 413 100.399414062 c 5
 413 50.7998046875 l 1
 381.249023438 12.689453125 325.560546875 -8 263 -8 c 0
 138 -8 40 91 40 230 c 0
 40 369 138 468 263 468 c 0
 325.560546875 468 381.249023438 446.310546875 413 409.200195312 c 1
 413 359.600585938 l 1
 377.088867188 416.440429688 319.930664062 438 263 438 c 0
 148 438 71 346 71 230 c 0
EndSplineSet
EndChar

StartChar: b
Encoding: 98 98 32
Width: 565
VWidth: 0
Flags: HMW
LayerCount: 2
Fore
SplineSet
110 780 m 5
 110 0 l 5
 80 0 l 5
 80 780 l 5
 110 780 l 5
520 230 m 4
 520 83 422 -8 297 -8 c 4
 174 -8 94 101 94 230 c 4
 94 359 174 468 297 468 c 4
 422 468 520 377 520 230 c 4
489 230 m 4
 489 366 390 438 300 438 c 4
 190 438 110 346 110 230 c 4
 110 114 190 22 300 22 c 4
 390 22 489 94 489 230 c 4
EndSplineSet
EndChar

StartChar: p
Encoding: 112 112 33
Width: 565
VWidth: 0
Flags: HMW
LayerCount: 2
Fore
SplineSet
110 -220 m 5
 80 -220 l 5
 80 460 l 1
 110 460 l 1
 110 -220 l 5
520 230 m 0
 520 83 422 -8 297 -8 c 4
 174 -8 94 101 94 230 c 0
 94 359 174 468 297 468 c 4
 422 468 520 377 520 230 c 0
489 230 m 0
 489 366 390 438 300 438 c 0
 190 438 110 346 110 230 c 0
 110 114 190 22 300 22 c 0
 390 22 489 94 489 230 c 0
EndSplineSet
EndChar

StartChar: q
Encoding: 113 113 34
Width: 565
VWidth: 0
Flags: HMW
LayerCount: 2
Fore
SplineSet
455 -220 m 1
 455 460 l 1
 485 460 l 1
 485 -220 l 1
 455 -220 l 1
45 230 m 0
 45 377 143 468 268 468 c 4
 391 468 471 359 471 230 c 0
 471 101 391 -8 268 -8 c 4
 143 -8 45 83 45 230 c 0
76 230 m 0
 76 94 175 22 265 22 c 0
 375 22 455 114 455 230 c 0
 455 346 375 438 265 438 c 0
 175 438 76 366 76 230 c 0
EndSplineSet
EndChar

StartChar: h
Encoding: 104 104 35
Width: 495
VWidth: 0
Flags: HMW
LayerCount: 2
Fore
SplineSet
410 300 m 1
 410 0 l 1
 380 0 l 1
 380 290 l 1
 410 300 l 1
115 780 m 1
 115 0 l 1
 85 0 l 1
 85 780 l 1
 115 780 l 1
410 300 m 5
 380 290 l 1
 380 381 347 438 267 438 c 0
 177 438 115 356 115 280 c 1
 104 280 l 1
 104 389 162 468 277 468 c 0
 366 468 410 399 410 300 c 5
EndSplineSet
EndChar

StartChar: n
Encoding: 110 110 36
Width: 495
VWidth: 0
Flags: HMW
LayerCount: 2
Fore
SplineSet
410 300 m 5
 410 0 l 5
 380 0 l 5
 380 290 l 5
 410 300 l 5
115 460 m 5
 115 0 l 5
 85 0 l 5
 85 460 l 5
 115 460 l 5
410 300 m 5
 380 290 l 5
 380 381 347 438 267 438 c 4
 177 438 115 356 115 280 c 5
 104 280 l 5
 104 389 162 468 277 468 c 4
 366 468 410 399 410 300 c 5
EndSplineSet
EndChar

StartChar: m
Encoding: 109 109 37
Width: 750
VWidth: 0
Flags: HMW
LayerCount: 2
Fore
SplineSet
665 300 m 1
 665 0 l 1
 635 0 l 1
 635 290 l 1
 665 300 l 1
665 300 m 5
 635 290 l 1
 635 381 602 438 532 438 c 0
 452 438 390 356 390 280 c 1
 374 280 l 5
 374 389 437 468 542 468 c 0
 621 468 665 399 665 300 c 5
390 300 m 1
 390 0 l 1
 360 0 l 1
 360 290 l 1
 390 300 l 1
115 460 m 1
 115 0 l 1
 85 0 l 1
 85 460 l 1
 115 460 l 1
390 300 m 5
 360 290 l 1
 360 381 327 438 257 438 c 0
 177 438 115 356 115 280 c 1
 104 280 l 1
 104 389 162 468 267 468 c 0
 346 468 390 399 390 300 c 5
EndSplineSet
EndChar

StartChar: k
Encoding: 107 107 38
Width: 395
VWidth: 0
Flags: HMW
LayerCount: 2
Fore
SplineSet
105 270 m 5
 145 270 l 5
 385 0 l 5
 344 0 l 5
 105 270 l 5
320 460 m 5
 365 460 l 5
 145 270 l 5
 100 270 l 5
 320 460 l 5
80 780 m 5
 110 780 l 5
 110 0 l 5
 80 0 l 5
 80 780 l 5
EndSplineSet
EndChar

StartChar: u
Encoding: 117 117 39
Width: 495
VWidth: 0
Flags: HMW
LayerCount: 2
Fore
SplineSet
85 160 m 1
 85 460 l 1
 115 460 l 1
 115 170 l 1
 85 160 l 1
380 0 m 1
 380 460 l 1
 410 460 l 1
 410 0 l 1
 380 0 l 1
85 160 m 5
 115 170 l 1
 115 79 148 22 228 22 c 0
 318 22 380 104 380 180 c 1
 391 180 l 1
 391 71 333 -8 218 -8 c 0
 129 -8 85 61 85 160 c 5
EndSplineSet
EndChar

StartChar: e
Encoding: 101 101 40
Width: 501
VWidth: 0
Flags: HMW
LayerCount: 2
Fore
SplineSet
45 230 m 5
 65 270 l 5
 78 250 l 5
 78 230 l 5
 45 230 l 5
76 223 m 5
 76 253 l 5
 445 253 l 5
 455 223 l 5
 76 223 l 5
455 223 m 5
 424 250 l 5
 424 347 358 438 256 438 c 4
 156 438 78 346 78 250 c 5
 45 230 l 5
 45 369 136 468 256 468 c 4
 373 468 456 379 456 234 c 4
 456 232 456 228 455 223 c 5
45 230 m 5
 76 230 l 5
 76 114 158 23 258 23 c 4
 353 23 398 78 427 133 c 5
 453 117 l 5
 416 46 355 -8 256 -8 c 4
 146 -8 45 91 45 230 c 5
EndSplineSet
EndChar

StartChar: g
Encoding: 103 103 41
Width: 565
VWidth: 0
Flags: HMW
LayerCount: 2
Fore
SplineSet
45 230 m 0
 45 377 143 468 268 468 c 4
 391 468 471 359 471 230 c 0
 471 101 391 -8 268 -8 c 4
 143 -8 45 83 45 230 c 0
76 230 m 0
 76 94 175 22 265 22 c 0
 375 22 455 114 455 230 c 0
 455 346 375 438 265 438 c 0
 175 438 76 366 76 230 c 0
59 -30 m 1
 89 -30 l 1
 89 -131 156 -200 262 -200 c 0
 367 -200 455 -130 455 10 c 1
 485 10 l 1
 485 -149 387 -230 262 -230 c 0
 137 -230 59 -149 59 -30 c 1
455 10 m 1
 455 460 l 1
 485 460 l 1
 485 10 l 1
 455 10 l 1
EndSplineSet
EndChar

StartChar: f
Encoding: 102 102 42
Width: 278
VWidth: 0
Flags: HMW
LayerCount: 2
Fore
SplineSet
50 460 m 1
 245 460 l 1
 245 430 l 1
 50 430 l 1
 50 460 l 1
95 630 m 1
 125 630 l 1
 125 0 l 5
 95 0 l 5
 95 630 l 1
269 718 m 5
 253 738 228 756 203 756 c 4
 143 756 125 706 125 630 c 5
 95 630 l 5
 95 719 119 788 203 788 c 4
 246 788 273 760 288 740 c 5
 269 718 l 5
EndSplineSet
EndChar

StartChar: s
Encoding: 115 115 43
Width: 382
VWidth: 0
Flags: HMW
LayerCount: 2
Fore
SplineSet
314 355 m 1
 295 399 266 437 203 437 c 0
 140 437 101 405 101 355 c 1
 67 354 l 1
 67 430 130 468 202 468 c 0
 283 468 323 419 341 368 c 1
 314 355 l 1
67 354 m 1
 101 355 l 1
 101 299.373046875 153.590820312 275.1015625 216 257.337890625 c 4
 282.3515625 238.452148438 342 202.497070312 342 117 c 1
 309 114 l 1
 309 179.408203125 270.4375 205.93359375 202 228.897460938 c 4
 129.685546875 253.163085938 67 278.387695312 67 354 c 1
70 150 m 1
 78 101 119 23 202 23 c 0
 272 23 309 62 309 114 c 1
 342 117 l 1
 342 38 282 -8 203 -8 c 0
 109 -8 54 69 40 144 c 1
 70 150 l 1
EndSplineSet
EndChar

StartChar: y
Encoding: 121 121 44
Width: 440
VWidth: 0
Flags: HMW
LayerCount: 2
Fore
SplineSet
10 460 m 1
 44 460 l 1
 227 44 l 5
 220 -15 l 1
 10 460 l 1
395 460 m 1
 430 460 l 1
 220 -15 l 1
 220 44 l 5
 395 460 l 1
206.94140625 25 m 1
 229 25 l 1
 430 460 l 1
 140 -220 l 1
 105 -220 l 1
 206.94140625 25 l 1
EndSplineSet
EndChar

StartChar: w
Encoding: 119 119 45
Width: 670
VWidth: 0
Flags: HMW
LayerCount: 2
Fore
SplineSet
622 460 m 5
 655 460 l 1
 480 -32 l 1
 481 50 l 1
 622 460 l 5
335 405 m 1
 335 485 l 1
 481 50 l 1
 480 -32 l 1
 335 405 l 1
335 485 m 1
 335 405 l 1
 190 -32 l 1
 189 50 l 1
 335 485 l 1
15 460 m 1
 48 460 l 1
 189 50 l 1
 190 -32 l 1
 15 460 l 1
EndSplineSet
EndChar

StartChar: v
Encoding: 118 118 46
Width: 420
VWidth: 0
Flags: HMW
LayerCount: 2
Fore
SplineSet
375 460 m 5
 410 460 l 1
 210 -25 l 1
 210 42 l 1
 375 460 l 5
10 460 m 1
 45 460 l 1
 210 42 l 1
 210 -25 l 1
 10 460 l 1
EndSplineSet
EndChar

StartChar: x
Encoding: 120 120 47
Width: 385
VWidth: 0
Flags: HMW
LayerCount: 2
Fore
SplineSet
20 460 m 1
 58 460 l 1
 375 0 l 1
 337 0 l 1
 20 460 l 1
327 460 m 1
 365 460 l 1
 48 0 l 1
 10 0 l 1
 327 460 l 1
EndSplineSet
EndChar

StartChar: z
Encoding: 122 122 48
Width: 435
VWidth: 0
Flags: HMW
LayerCount: 2
Fore
SplineSet
75 30 m 5
 405 30 l 1
 405 0 l 1
 20 0 l 1
 75 30 l 5
30 460 m 1
 415 460 l 1
 370 430 l 1
 30 430 l 1
 30 460 l 1
378 460 m 1
 415 460 l 1
 57 0 l 5
 20 0 l 1
 378 460 l 1
EndSplineSet
EndChar

StartChar: j
Encoding: 106 106 49
Width: 211
VWidth: 0
Flags: HMW
LayerCount: 2
Fore
SplineSet
-62 -152 m 5
 -46 -172 -20 -192 5 -192 c 0
 65 -192 83 -138 83 -62 c 1
 113 -62 l 1
 113 -151 89 -220 5 -220 c 0
 -38 -220 -65 -192 -80 -172 c 1
 -62 -152 l 5
70 675 m 0
 70 691 81 703 98 703 c 0
 115 703 126 691 126 675 c 0
 126 659 115 647 98 647 c 0
 81 647 70 659 70 675 c 0
113 -62 m 1
 83 -62 l 1
 83 460 l 1
 113 460 l 1
 113 -62 l 1
EndSplineSet
EndChar

StartChar: P
Encoding: 80 80 50
Width: 516
VWidth: 0
Flags: HMW
LayerCount: 2
Fore
SplineSet
240 294 m 1
 240 323 l 5
 360 323 435 381 435 497 c 4
 435 613 360 671 240 671 c 5
 240 700 l 1
 375 700 466 626 466 497 c 0
 466 368 375 294 240 294 c 1
112 294 m 1
 112 323 l 1
 240 323 l 1
 240 294 l 1
 112 294 l 1
112 671 m 1
 112 700 l 1
 240 700 l 1
 240 671 l 1
 112 671 l 1
90 700 m 1
 120 700 l 1
 120 0 l 1
 90 0 l 1
 90 700 l 1
EndSplineSet
EndChar

StartChar: U
Encoding: 85 85 51
Width: 616
VWidth: 0
Flags: HMW
LayerCount: 2
Fore
SplineSet
501 700 m 1
 531 700 l 1
 531 240 l 1
 501 240 l 1
 501 700 l 1
85 700 m 1
 115 700 l 1
 115 240 l 1
 85 240 l 1
 85 700 l 1
308 -10 m 0
 173 -10 85 91 85 240 c 1
 115 240 l 1
 115 104 198 22 308 22 c 4
 418 22 501 104 501 240 c 1
 531 240 l 1
 531 91 443 -10 308 -10 c 0
EndSplineSet
EndChar

StartChar: S
Encoding: 83 83 52
Width: 518
VWidth: 0
Flags: HMW
LayerCount: 2
Fore
SplineSet
430 538 m 1
 400 626 349 677 262 677 c 0
 182 677 114 630 114 544 c 1
 80 540 l 1
 80 646 169 708 263 708 c 0
 366 708 431 641 459 550 c 1
 430 538 l 1
80 540 m 5
 114 544 l 1
 114 444.373046875 201.4609375 417.963867188 286 384.337890625 c 0
 359.068359375 355.274414062 463 313.497070312 463 185 c 1
 430 182 l 1
 430 300.408203125 339.393554688 331.028320312 260 360.897460938 c 0
 180.43359375 390.831054688 80 432.387695312 80 540 c 5
67 204 m 1
 104 106 161 22 268 22 c 0
 381 22 430 92 430 182 c 1
 463 185 l 1
 463 86 404 -8 265 -8 c 0
 150 -8 79 76 40 193 c 1
 67 204 l 1
EndSplineSet
EndChar

StartChar: at
Encoding: 64 64 53
Width: 770
VWidth: 0
Flags: HMW
LayerCount: 2
Fore
SplineSet
520 520 m 1
 550 520 l 1
 509 289 l 2
 507.85546875 282.0234375 507 272 507 264 c 0
 507 240 508 180 557 180 c 0
 617 180 707 244 707 390 c 1
 735 390 l 5
 735 229 631 152 556 152 c 0
 495 152 470 204 480 270 c 0
 481.647460938 280.875976562 472 261 474 270 c 2
 520 520 l 1
223 320 m 0
 223 244 268 189 335 189 c 0
 415 189 490 264 490 370 c 0
 490 436 448 501 378 501 c 0
 303 501 223 436 223 320 c 0
195 320 m 0
 195 459 293 528 378 528 c 0
 463 528 506 464 506 375 c 0
 506 236 428 162 328 162 c 4
 253 162 195 221 195 320 c 0
35 320 m 0
 35 539 191 708 415 708 c 0
 619 708 735 549 735 390 c 1
 707 390 l 1
 707 543 593 680 415 680 c 0
 209 680 65 523 65 320 c 0
 65 137 167 20 355 20 c 1
 355 -8 l 1
 151 -8 35 121 35 320 c 0
355 20 m 1
 445 20 528 41 594 78 c 1
 603 51 l 1
 543 22 469 -8 355 -8 c 1
 355 20 l 1
EndSplineSet
EndChar

StartChar: period
Encoding: 46 46 54
Width: 300
VWidth: 0
Flags: HMW
LayerCount: 2
Fore
SplineSet
120 17 m 0
 120 35 131 47 150 47 c 0
 169 47 180 35 180 17 c 0
 180 -1 169 -13 150 -13 c 0
 131 -13 120 -1 120 17 c 0
EndSplineSet
EndChar

StartChar: comma
Encoding: 44 44 55
Width: 308
VWidth: 0
Flags: HMW
LayerCount: 2
Fore
SplineSet
183 103 m 5
 213 90 l 5
 85 -158 l 5
 70 -149 l 5
 183 103 l 5
EndSplineSet
EndChar

StartChar: exclam
Encoding: 33 33 59
Width: 300
VWidth: 0
Flags: HMW
LayerCount: 2
Fore
SplineSet
134 700 m 1
 166 700 l 5
 159 200 l 5
 141 200 l 1
 134 700 l 1
EndSplineSet
Refer: 54 46 N 1 0 0 1 0 0 2
EndChar

StartChar: quotesingle
Encoding: 39 39 60
Width: 295
VWidth: 0
Flags: HMW
LayerCount: 2
Fore
SplineSet
180 700 m 1
 220 700 l 1
 120 400 l 5
 100 400 l 1
 180 700 l 1
EndSplineSet
EndChar

StartChar: numbersign
Encoding: 35 35 61
Width: 605
VWidth: 0
Flags: HMW
LayerCount: 2
Fore
SplineSet
70 460 m 5
 70 485 l 5
 555 485 l 5
 555 460 l 5
 70 460 l 5
50 220 m 5
 50 245 l 5
 535 245 l 5
 535 220 l 5
 50 220 l 5
490 700 m 5
 515 700 l 5
 345 0 l 5
 320 0 l 5
 490 700 l 5
260 700 m 5
 285 700 l 5
 115 0 l 5
 90 0 l 5
 260 700 l 5
EndSplineSet
EndChar

StartChar: hyphen
Encoding: 45 45 62
Width: 210
VWidth: 0
Flags: HMW
LayerCount: 2
Fore
SplineSet
5 225 m 1
 5 250 l 5
 205 250 l 5
 205 225 l 1
 5 225 l 1
EndSplineSet
EndChar

StartChar: bar
Encoding: 124 124 64
Width: 224
VWidth: 0
Flags: HMW
LayerCount: 2
Fore
SplineSet
100 785 m 1
 124 785 l 5
 124 -215 l 5
 100 -215 l 1
 100 785 l 1
EndSplineSet
EndChar

StartChar: zero
Encoding: 48 48 65
Width: 590
VWidth: 0
Flags: HMW
LayerCount: 2
Fore
SplineSet
85 350 m 0
 85 167 167 22 295 22 c 0
 423 22 505 167 505 350 c 0
 505 543 423 678 295 678 c 4
 167 678 85 543 85 350 c 0
55 350 m 0
 55 559 151 708 295 708 c 0
 439 708 535 559 535 350 c 0
 535 141 439 -8 295 -8 c 0
 151 -8 55 141 55 350 c 0
EndSplineSet
EndChar

StartChar: one
Encoding: 49 49 66
Width: 440
VWidth: 0
Flags: HMW
LayerCount: 2
Fore
SplineSet
105 617 m 1
 105 650 l 1
 305 710 l 1
 280 672 l 1
 105 617 l 1
273 670 m 5
 305 710 l 1
 305 0 l 1
 273 0 l 5
 273 670 l 5
EndSplineSet
EndChar

StartChar: two
Encoding: 50 50 67
Width: 544
VWidth: 0
Flags: HMW
LayerCount: 2
Fore
SplineSet
41 0 m 1
 81 30 l 1
 509 30 l 1
 509 0 l 1
 41 0 l 1
489 520 m 1
 457 525 l 5
 457 611 395 679 290 679 c 0
 180 679 100 591 100 460 c 1
 70 460 l 1
 70 609 155 709 290 709 c 0
 430 709 489 619 489 520 c 1
368 294 m 2
 65 0 l 1
 25 0 l 1
 354 325 l 2
 419.05859375 389.267578125 457 439 457 525 c 5
 489 520 l 1
 489 414 426.733398438 350.98828125 368 294 c 2
EndSplineSet
EndChar

StartChar: four
Encoding: 52 52 68
Width: 593
VWidth: 0
Flags: HMW
LayerCount: 2
Fore
SplineSet
25 150 m 1
 75 180 l 1
 558 180 l 1
 558 150 l 1
 25 150 l 1
67 163 m 1
 25 150 l 1
 438 730 l 5
 410 638 l 5
 67 163 l 1
408 660 m 5
 438 730 l 5
 438 0 l 1
 408 0 l 1
 408 660 l 5
EndSplineSet
EndChar

StartChar: slash
Encoding: 47 47 69
Width: 615
VWidth: 0
Flags: HMW
LayerCount: 2
Fore
SplineSet
560 700 m 1
 600 700 l 1
 55 -150 l 5
 15 -150 l 1
 560 700 l 1
EndSplineSet
EndChar

StartChar: backslash
Encoding: 92 92 70
Width: 515
VWidth: 0
Flags: HMW
LayerCount: 2
Fore
SplineSet
15 700 m 1
 55 700 l 1
 500 0 l 1
 460 0 l 5
 15 700 l 1
EndSplineSet
EndChar

StartChar: eight
Encoding: 56 56 71
Width: 536
VWidth: 0
Flags: HMW
LayerCount: 2
Fore
SplineSet
90 541 m 0
 90 640 173 708 268 708 c 0
 363 708 446 640 446 541 c 0
 446 439 373 365 268 365 c 0
 163 365 90 439 90 541 c 0
121 535 m 0
 121 449 188 390 268 390 c 0
 348 390 415 449 415 535 c 0
 415 626 348 678 268 678 c 0
 188 678 121 626 121 535 c 0
65 180 m 0
 65 309 163 380 268 380 c 0
 373 380 471 309 471 180 c 0
 471 76 383 -8 268 -8 c 0
 153 -8 65 76 65 180 c 0
98 185 m 0
 98 89 168 22 268 22 c 0
 368 22 438 89 438 185 c 0
 438 291 363 355 268 355 c 4
 173 355 98 291 98 185 c 0
EndSplineSet
EndChar

StartChar: three
Encoding: 51 51 73
Width: 526
VWidth: 0
Flags: HMW
LayerCount: 2
Fore
SplineSet
238 356 m 1
 238 375 l 1
 358 375 405 445 405 521 c 0
 405 614 343 678 263 678 c 4
 163 678 121 607 121 526 c 1
 90 526 l 1
 90 635 158 708 263 708 c 0
 358 708 436 635 436 526 c 0
 436 422 373 356 238 356 c 1
263 -8 m 0
 148 -8 65 76 65 185 c 1
 96 185 l 1
 96 104 158 22 263 22 c 0
 363 22 430 84 430 190 c 0
 430 276 360 350 238 350 c 5
 238 371 l 1
 373 371 461 304 461 185 c 0
 461 61 378 -8 263 -8 c 0
EndSplineSet
EndChar

StartChar: five
Encoding: 53 53 74
Width: 572
VWidth: 0
Flags: HMW
LayerCount: 2
Fore
SplineSet
190 700 m 1
 520 700 l 1
 520 670 l 1
 190 670 l 1
 190 700 l 1
190 700 m 1
 220 695 l 1
 146 384 l 1
 106 339 l 1
 190 700 l 1
522 230 m 1
 490 230 l 1
 490 356 407 427 307 427 c 0
 230 427 188 406 106 339 c 1
 143 393 l 5
 191 441 245 461 314 461 c 0
 419 461 522 379 522 230 c 1
522 230 m 1
 522 76 430 -8 300 -8 c 0
 166 -8 94 87 55 156 c 1
 78 172 l 1
 109 112 188 21 300 21 c 0
 406 21 490 89 490 230 c 1
 522 230 l 1
EndSplineSet
EndChar

StartChar: six
Encoding: 54 54 75
Width: 546
VWidth: 0
Flags: HMW
LayerCount: 2
Fore
SplineSet
315 700 m 5
 350 700 l 5
 128 375 l 5
 102 387 l 5
 315 700 l 5
50 230 m 4
 50 286.768554688 73.9189453125 347.388671875 102 387 c 4
 123.92578125 417.928710938 113.288085938 386.671875 142 402.0078125 c 5
 156.03515625 430.188476562 215.6796875 462 289 462 c 4
 397 462 496 369 496 230 c 4
 496 86 398 -8 273 -8 c 4
 148 -8 50 86 50 230 c 4
81 230 m 4
 81 104 163 22 273 22 c 4
 393 22 464 114 464 230 c 4
 464 346 388 435 273 435 c 4
 183 435 81 356 81 230 c 4
EndSplineSet
EndChar

StartChar: seven
Encoding: 55 55 76
Width: 515
VWidth: 0
Flags: HMW
LayerCount: 2
Fore
SplineSet
35 670 m 1
 35 700 l 1
 505 700 l 1
 465 670 l 1
 35 670 l 1
471 700 m 1
 505 700 l 1
 155 0 l 1
 121 0 l 1
 471 700 l 1
EndSplineSet
EndChar

StartChar: plus
Encoding: 43 43 77
Width: 605
VWidth: 0
Flags: HMW
LayerCount: 2
Fore
SplineSet
70 240 m 1
 70 270 l 1
 535 270 l 1
 535 240 l 1
 70 240 l 1
287 500 m 1
 318 500 l 1
 318 10 l 1
 287 10 l 1
 287 500 l 1
EndSplineSet
EndChar

StartChar: percent
Encoding: 37 37 79
Width: 751
VWidth: 0
Flags: HMW
LayerCount: 2
Fore
SplineSet
64 550 m 4
 64 475 116 420 193 420 c 4
 270 420 322 475 322 550 c 4
 322 625 270 680 193 680 c 4
 116 680 64 625 64 550 c 4
429 150 m 4
 429 75 481 20 558 20 c 4
 635 20 687 75 687 150 c 4
 687 225 635 280 558 280 c 4
 481 280 429 225 429 150 c 4
400 150 m 4
 400 239 463 308 558 308 c 4
 653 308 716 239 716 150 c 4
 716 61 653 -8 558 -8 c 4
 463 -8 400 61 400 150 c 4
35 550 m 4
 35 639 98 708 193 708 c 4
 288 708 351 639 351 550 c 4
 351 461 288 392 193 392 c 4
 98 392 35 461 35 550 c 4
603 700 m 5
 638 700 l 5
 148 0 l 5
 113 0 l 5
 603 700 l 5
EndSplineSet
EndChar

StartChar: ampersand
Encoding: 38 38 80
Width: 675
VWidth: 0
Flags: HMW
LayerCount: 2
Fore
SplineSet
60 190 m 1
 93 190 l 1
 93 92 165 22 285 22 c 0
 452 22 574 196 635 296 c 1
 661 280 l 1
 585 160 474 -8 285 -8 c 0
 160 -8 60 61 60 190 c 1
157 556 m 1
 157 650 229 709 324 709 c 0
 429 709 481 640 481 564 c 1
 453 564 l 1
 453 630 404 678 324 678 c 0
 244 678 185 632 185 556 c 1
 157 556 l 1
268 349 m 6
 216.826171875 411.87109375 157 459 157 556 c 1
 185 556 l 1
 185 490 217.762695312 456.314453125 275 385 c 2
 645 0 l 1
 605 0 l 5
 268 349 l 6
481 564 m 1
 481 467.387695312 392.56640625 412.831054688 315 377.897460938 c 0
 237.655273438 343.063476562 93 300.408203125 93 190 c 1
 60 190 l 1
 60 317.497070312 212.1484375 367.19140625 284 397.337890625 c 0
 359.317382812 428.938476562 453 473.373046875 453 564 c 1
 481 564 l 1
EndSplineSet
EndChar

StartChar: question
Encoding: 63 63 81
Width: 557
VWidth: 0
Flags: HMW
LayerCount: 2
Fore
SplineSet
227 340 m 1
 270 340 l 1
 260 170 l 1
 242 170 l 1
 227 340 l 1
440 510 m 1
 477 505 l 1
 477 386 364 313 249 313 c 1
 227 340 l 1
 357 340 440 404 440 510 c 1
477 505 m 1
 440 510 l 1
 440 608 375 673 273 673 c 0
 196 673 140 637 93 567 c 1
 65 588 l 1
 111 658 180 708 279 708 c 4
 384 708 477 630 477 505 c 1
EndSplineSet
Refer: 54 46 N 1 0 0 1 100 0 2
EndChar

StartChar: parenleft
Encoding: 40 40 82
Width: 280
VWidth: 0
Flags: HMW
LayerCount: 2
Fore
SplineSet
225 780 m 1
 250 780 l 1
 180 630 130 460 130 290 c 0
 130 120 180 -50 250 -200 c 1
 225 -200 l 5
 145 -50 90 120 90 290 c 0
 90 460 145 630 225 780 c 1
EndSplineSet
EndChar

StartChar: asterisk
Encoding: 42 42 84
Width: 592
VWidth: 0
Flags: HMW
LayerCount: 2
Fore
SplineSet
476.821289062 579.524414062 m 1
 486.091796875 550.991210938 l 1
 299.090820312 495.48828125 l 1
 292.909179688 514.51171875 l 1
 476.821289062 579.524414062 l 1
422.75390625 356.05859375 m 1
 398.481445312 338.423828125 l 1
 287.909179688 499.12109375 l 1
 304.090820312 510.87890625 l 1
 422.75390625 356.05859375 l 1
193.517578125 338.424804688 m 1
 169.245117188 356.059570312 l 1
 287.909179688 510.877929688 l 1
 304.090820312 499.122070312 l 1
 193.517578125 338.424804688 l 1
105.909179688 550.9921875 m 1
 115.1796875 579.525390625 l 1
 299.08984375 514.510742188 l 1
 292.91015625 495.489257812 l 1
 105.909179688 550.9921875 l 1
281 700 m 1
 311.000976562 700 l 1
 306 505 l 1
 286 505 l 1
 281 700 l 1
EndSplineSet
EndChar

StartChar: less
Encoding: 60 60 85
Width: 640
VWidth: 0
Flags: HMW
LayerCount: 2
Fore
SplineSet
85 265 m 1
 102 265 l 1
 102 250 l 1
 85 250 l 1
 85 265 l 1
120 250 m 1
 85 265 l 1
 575 495 l 1
 575 465 l 1
 120 250 l 1
85 250 m 1
 120 265 l 5
 575 50 l 1
 575 20 l 1
 85 250 l 1
EndSplineSet
EndChar

StartChar: bracketleft
Encoding: 91 91 87
Width: 300
VWidth: 0
Flags: HMW
LayerCount: 2
Fore
SplineSet
129 -215 m 1
 129 -185 l 1
 280 -185 l 1
 280 -215 l 1
 129 -215 l 1
129 755 m 1
 129 785 l 1
 280 785 l 1
 280 755 l 1
 129 755 l 1
105 785 m 5
 134 785 l 1
 134 -215 l 1
 105 -215 l 5
 105 785 l 5
EndSplineSet
EndChar

StartChar: asciicircum
Encoding: 94 94 89
Width: 510
VWidth: 0
Flags: HMW
LayerCount: 2
Fore
SplineSet
240 710 m 1
 270 710 l 1
 275 690 l 1
 235 690 l 1
 240 710 l 1
250 690 m 5
 270 710 l 1
 445 460 l 1
 405 460 l 5
 250 690 l 5
240 710 m 1
 260 690 l 1
 105 460 l 1
 65 460 l 1
 240 710 l 1
EndSplineSet
EndChar

StartChar: grave
Encoding: 96 96 91
Width: 375
VWidth: 0
Flags: HMW
LayerCount: 2
Fore
SplineSet
105 680 m 5
 130 700 l 5
 300 540 l 5
 285 530 l 5
 105 680 l 5
EndSplineSet
EndChar

StartChar: braceleft
Encoding: 123 123 92
Width: 321
VWidth: 0
Flags: HMW
LayerCount: 2
Fore
SplineSet
95 305 m 1
 95 275 l 1
 80 275 l 1
 80 305 l 1
 95 305 l 1
95 295 m 1
 144 295 170 209 170 120 c 1
 138 150 l 1
 138 226 110 265 80 275 c 1
 80 275 92.1455078125 279.525390625 95 295 c 1
231 -200 m 1
 251 -170 l 1
 291 -170 l 1
 291 -200 l 1
 231 -200 l 1
138 -70 m 5
 138 150 l 1
 170 120 l 1
 170 -80 l 1
 138 -70 l 5
251 -170 m 1
 231 -200 l 1
 167 -200 138 -169 138 -70 c 5
 170 -80 l 1
 170 -136 186 -170 246 -170 c 2
 251 -170 l 1
80 305 m 1
 110 315 138 354 138 430 c 1
 170 460 l 1
 170 371 144 285 95 285 c 1
 91.900390625 300.611328125 80 305 80 305 c 1
231 780 m 1
 291 780 l 1
 291 750 l 1
 247 750 l 1
 231 780 l 1
138 640 m 1
 170 660 l 1
 170 460 l 1
 138 430 l 1
 138 640 l 1
247 750 m 1
 242 750 l 2
 192 750 170 721 170 660 c 1
 138 640 l 1
 138 739 167 780 231 780 c 1
 247 750 l 1
EndSplineSet
EndChar

StartChar: asciitilde
Encoding: 126 126 94
Width: 575
VWidth: 0
Flags: HMW
LayerCount: 2
Fore
SplineSet
112 176 m 1
 78 181 l 1
 76 188 75 196 75 205 c 0
 75 273.325195312 114.665577184 327 184 327 c 0
 243 327 282 288 309 256 c 4
 333.376953125 227.108398438 362 202 400 202 c 0
 449.408203125 202 467 250.29296875 467 292 c 0
 467 300 466 313 462 323 c 1
 496 318 l 1
 498 310 500 300 500 290 c 0
 500 225.145507812 469.400179735 172 404 172 c 0
 350 172 315 205 287 237 c 0
 262.107421875 265.44921875 233 298 183 298 c 0
 129.8515625 298 108 245.715211958 108 198 c 0
 108 191 109 184 112 176 c 1
EndSplineSet
EndChar

StartChar: sterling
Encoding: 163 163 97
Width: 522
VWidth: 0
Flags: HMW
LayerCount: 2
Fore
SplineSet
35 0 m 1
 105 35 l 1
 488 35 l 1
 488 0 l 1
 35 0 l 1
97 518 m 1
 139 520 l 1
 139 394 259 376 259 264 c 0
 259 168 162 60 88 20 c 5
 35 0 l 1
 133 102 221 172 221 260 c 0
 221 364 97 382 97 518 c 1
38 370 m 1
 398 370 l 1
 398 340 l 1
 38 340 l 1
 38 370 l 1
458 494 m 1
 454 567 408 669 292 669 c 0
 192 669 139 606 139 520 c 1
 97 518 l 1
 97 637 173 708 297 708 c 0
 440 708 487 578 492 498 c 1
 458 494 l 1
EndSplineSet
EndChar

StartChar: currency
Encoding: 164 164 98
Width: 565
VWidth: 0
Flags: HMW
LayerCount: 2
Fore
SplineSet
85 300 m 0
 85 182 169 100 282 100 c 4
 395 100 479 182 479 300 c 0
 479 418 395 500 282 500 c 4
 169 500 85 418 85 300 c 0
40 513 m 1
 69 543 l 1
 148 464 l 1
 118 435 l 1
 40 513 l 1
69 57 m 1
 40 87 l 1
 118 165 l 1
 148 136 l 1
 69 57 l 1
446 435 m 1
 417 464 l 1
 496 543 l 1
 525 513 l 1
 446 435 l 1
417 136 m 1
 446 165 l 1
 525 87 l 1
 496 57 l 1
 417 136 l 1
44 300 m 4
 44 439 147 540 282 540 c 4
 417 540 520 439 520 300 c 0
 520 161 417 60 282 60 c 0
 147 60 44 161 44 300 c 4
EndSplineSet
EndChar

StartChar: brokenbar
Encoding: 166 166 100
Width: 244
VWidth: 0
Flags: HMW
LayerCount: 2
Fore
SplineSet
100 695 m 1
 144 695 l 5
 144 455 l 5
 100 455 l 1
 100 695 l 1
144 245 m 5
 144 5 l 5
 100 5 l 1
 100 245 l 1
 144 245 l 5
EndSplineSet
EndChar

StartChar: section
Encoding: 167 167 101
Width: 408
VWidth: 0
Flags: HMW
LayerCount: 2
Fore
SplineSet
210 256 m 1
 260 256 327 306 327 366 c 1
 358 370 l 1
 358 311 309 241 210 241 c 1
 210 256 l 1
347 607 m 1
 326 644 281 681 214 681 c 0
 154 681 109 650 109 589 c 1
 79 589 l 1
 79 665 139 708 213 708 c 0
 286 708 346 671 374 620 c 1
 347 607 l 1
79 589 m 1
 109 589 l 1
 109 538.373046875 199.897460938 502.5703125 251 481.337890625 c 0
 316.3359375 454.192382812 358 427.497070312 358 370 c 1
 327 366 l 1
 327 436.408203125 243.888671875 452.79296875 191 473.897460938 c 0
 127.65625 499.173828125 79 538.387695312 79 589 c 1
79 365 m 1
 114 369 l 1
 114 303.373046875 199.897460938 267.5703125 251 246.337890625 c 0
 316.3359375 219.192382812 358 187.497070312 358 130 c 1
 325 123 l 1
 325 193.408203125 243.888671875 218.79296875 191 239.897460938 c 0
 127.65625 265.173828125 79 308.387695312 79 365 c 1
69 133 m 1
 81 77 132 21 211 21 c 4
 261 21 325 43 325 123 c 1
 358 130 l 1
 358 47 309 -8 210 -8 c 0
 125 -8 54 48 40 123 c 1
 69 133 l 1
228 478 m 1
 168 468 114 430 114 369 c 1
 79 365 l 1
 79 431 124 489 228 489 c 1
 228 478 l 1
EndSplineSet
EndChar

StartChar: copyright
Encoding: 169 169 103
Width: 800
VWidth: 0
Flags: HMW
LayerCount: 2
Fore
SplineSet
65 350 m 4
 65 152 207 15 400 15 c 4
 593 15 735 152 735 350 c 4
 735 548 593 685 400 685 c 4
 207 685 65 548 65 350 c 4
40 350 m 4
 40 559 196 710 400 710 c 4
 604 710 760 559 760 350 c 4
 760 141 604 -10 400 -10 c 4
 196 -10 40 141 40 350 c 4
EndSplineSet
Refer: 3 67 N 0.6 0 0 0.6 161 140 2
EndChar

StartChar: registered
Encoding: 174 174 104
Width: 800
VWidth: 0
Flags: HMW
LayerCount: 2
Fore
SplineSet
65 350 m 4
 65 152 207 15 400 15 c 4
 593 15 735 152 735 350 c 4
 735 548 593 685 400 685 c 4
 207 685 65 548 65 350 c 4
40 350 m 4
 40 559 196 710 400 710 c 4
 604 710 760 559 760 350 c 4
 760 141 604 -10 400 -10 c 4
 196 -10 40 141 40 350 c 4
EndSplineSet
Refer: 13 82 N 0.6 0 0 0.6 246 150 2
EndChar

StartChar: logicalnot
Encoding: 172 172 110
Width: 620
VWidth: 0
Flags: HMW
LayerCount: 2
Fore
SplineSet
525 345 m 5
 555 345 l 1
 555 175 l 1
 525 175 l 5
 525 345 l 5
EndSplineSet
Refer: 62 45 N 2.45 0 0 1 52.75 100 2
EndChar

StartChar: plusminus
Encoding: 177 177 113
Width: 615
VWidth: 0
Flags: HMW
LayerCount: 2
Fore
SplineSet
65 85 m 1
 65 110 l 5
 550 110 l 5
 550 85 l 1
 65 85 l 1
65 366 m 1
 65 390 l 1
 550 390 l 1
 550 366 l 1
 65 366 l 1
295 570 m 1
 320 570 l 1
 320 180 l 1
 295 180 l 1
 295 570 l 1
EndSplineSet
EndChar

StartChar: acute
Encoding: 180 180 116
Width: 375
VWidth: 0
Flags: HMW
LayerCount: 2
Fore
SplineSet
280 670 m 1
 100 520 l 1
 85 530 l 1
 255 690 l 1
 280 670 l 1
EndSplineSet
EndChar

StartChar: paragraph
Encoding: 182 182 118
Width: 538
VWidth: 0
Flags: HMW
LayerCount: 2
Fore
SplineSet
288 675 m 1
 288 700 l 1
 468 700 l 1
 468 675 l 1
 288 675 l 1
453 700 m 1
 478 700 l 1
 478 -220 l 1
 453 -220 l 1
 453 700 l 1
288 700 m 1
 313 700 l 1
 313 -220 l 1
 288 -220 l 1
 288 700 l 1
288 270 m 1
 163 270 60 346 60 485 c 0
 60 624 163 700 288 700 c 1
 288 270 l 1
EndSplineSet
EndChar

StartChar: cedilla
Encoding: 184 184 121
Width: 350
Flags: HMW
LayerCount: 2
Fore
SplineSet
196 60 m 1
 227 60 l 1
 166.799804688 -63.7998046875 l 5
 120.799804688 -97.7998046875 l 1
 196 60 l 1
265.200195312 -126 m 1
 236.400390625 -126 l 1
 236.400390625 -92.400390625 212.200195312 -76 178.200195312 -76 c 0
 168 -76 143.400390625 -81.7998046875 120.799804688 -97.7998046875 c 1
 150.799804688 -68.2001953125 l 1
 176.400390625 -52.2001953125 188.799804688 -52 202.200195312 -52 c 0
 235.200195312 -52 265.200195312 -86.599609375 265.200195312 -126 c 1
265.200195312 -126 m 1
 265.200195312 -187.400390625 223.200195312 -220 168.200195312 -220 c 0
 130.799804688 -220 106.400390625 -209.799804688 78.7998046875 -181.799804688 c 1
 99 -162.400390625 l 1
 117.599609375 -178.400390625 132 -196 168.200195312 -196 c 0
 209.200195312 -196 236.400390625 -169.599609375 236.400390625 -126 c 1
 265.200195312 -126 l 1
EndSplineSet
EndChar

StartChar: multiply
Encoding: 215 215 123
Width: 596
VWidth: 0
Flags: HMW
LayerCount: 2
Fore
SplineSet
276 273 m 1
 321 273 l 1
 321 232 l 1
 276 232 l 1
 276 273 l 1
293 235 m 1
 318 260 l 1
 518 65 l 1
 488 35 l 1
 293 235 l 1
78 445 m 1
 108 475 l 1
 303 275 l 1
 278 250 l 1
 78 445 l 1
318 250 m 1
 293 276 l 5
 488 476 l 5
 518 445 l 1
 318 250 l 1
108 35 m 1
 78 66 l 5
 278 261 l 5
 303 235 l 1
 108 35 l 1
EndSplineSet
EndChar

StartChar: Thorn
Encoding: 222 222 125
Width: 550
VWidth: 0
Flags: HMW
LayerCount: 2
Fore
SplineSet
270 140 m 1
 270 175 l 1
 380 175 463 234 463 350 c 0
 463 466 380 524 270 524 c 1
 270 560 l 1
 405 560 498 479 498 350 c 0
 498 221 405 140 270 140 c 1
97 140 m 1
 97 175 l 1
 270 175 l 1
 270 140 l 1
 97 140 l 1
97 524 m 1
 97 560 l 1
 270 560 l 1
 270 524 l 1
 97 524 l 1
80 700 m 1
 111 700 l 5
 111 0 l 5
 80 0 l 1
 80 700 l 1
EndSplineSet
EndChar

StartChar: circumflex
Encoding: 710 710 128
Width: 480
VWidth: 0
Flags: HMW
LayerCount: 2
Fore
SplineSet
230 700 m 5
 240 730 l 1
 400 590 l 1
 380 570 l 5
 230 700 l 5
240 730 m 1
 250 700 l 1
 100 570 l 1
 80 590 l 1
 240 730 l 1
EndSplineSet
EndChar

StartChar: ogonek
Encoding: 731 731 129
Width: 260
VWidth: 0
Flags: HMW
LayerCount: 2
Fore
SplineSet
220 -157 m 1
 237 -180 l 1
 215 -203 182 -220 139 -220 c 0
 55 -220 16 -169 16 -120 c 1
 48 -115 l 1
 48 -161 86 -194 141 -194 c 0
 177 -194 204 -176 220 -157 c 1
48 -115 m 1
 16 -120 l 1
 16 -51 77.7509765625 -11 147.750976562 25 c 1
 156.750976562 8 l 5
 114.690429688 -14.27734375 48.296875 -57.6220703125 48 -115 c 1
EndSplineSet
EndChar

StartChar: tilde
Encoding: 732 732 130
Width: 530
VWidth: 0
Flags: HMW
LayerCount: 2
Fore
SplineSet
80 625 m 1
 90 674.352539062 127.494140625 707 189 707 c 0
 228 707 264.096679688 667.208007812 277 654 c 0
 300.749023438 629.690429688 324 619 342 619 c 0
 381.408203125 619 404 663.29296875 424 695 c 1
 450 685 l 1
 434 648.231445312 398.641601562 592 339 592 c 0
 305 592 272.495117188 614.553710938 254 633 c 4
 232.208984375 654.733398438 208 678 178 678 c 0
 129.361328125 678 106 628.698242188 106 614 c 1
 80 625 l 1
EndSplineSet
EndChar

StartChar: ring
Encoding: 730 730 131
Width: 278
VWidth: 0
Flags: HMW
LayerCount: 2
Fore
SplineSet
40 785 m 0
 40 844.5 81.5 885 139 885 c 0
 196.5 885 238 844.5 238 785 c 0
 238 725.5 196.5 685 139 685 c 0
 81.5 685 40 725.5 40 785 c 0
70.5 785 m 4
 70.5 742 99 712.5 139 712.5 c 0
 179 712.5 207.5 742 207.5 785 c 4
 207.5 828 179 857.5 139 857.5 c 0
 99 857.5 70.5 828 70.5 785 c 4
EndSplineSet
EndChar

StartChar: quoteright
Encoding: 8217 8217 138
Width: 295
VWidth: 0
Flags: HMW
LayerCount: 2
Fore
SplineSet
188 700 m 1
 235 700 l 1
 117 470 l 1
 95 470 l 5
 188 700 l 1
EndSplineSet
EndChar

StartChar: perthousand
Encoding: 8240 8240 143
Width: 1141
VWidth: 0
Flags: HMW
LayerCount: 2
Fore
SplineSet
819 150 m 4
 819 75 871 20 948 20 c 4
 1025 20 1077 75 1077 150 c 4
 1077 225 1025 280 948 280 c 4
 871 280 819 225 819 150 c 4
790 150 m 4
 790 239 853 308 948 308 c 4
 1043 308 1106 239 1106 150 c 4
 1106 61 1043 -8 948 -8 c 4
 853 -8 790 61 790 150 c 4
64 550 m 4
 64 475 116 420 193 420 c 4
 270 420 322 475 322 550 c 4
 322 625 270 680 193 680 c 4
 116 680 64 625 64 550 c 4
429 150 m 4
 429 75 481 20 558 20 c 4
 635 20 687 75 687 150 c 4
 687 225 635 280 558 280 c 4
 481 280 429 225 429 150 c 4
400 150 m 4
 400 239 463 308 558 308 c 4
 653 308 716 239 716 150 c 4
 716 61 653 -8 558 -8 c 4
 463 -8 400 61 400 150 c 4
35 550 m 4
 35 639 98 708 193 708 c 4
 288 708 351 639 351 550 c 4
 351 461 288 392 193 392 c 4
 98 392 35 461 35 550 c 4
603 700 m 5
 638 700 l 5
 148 0 l 5
 113 0 l 5
 603 700 l 5
EndSplineSet
EndChar

StartChar: guilsinglleft
Encoding: 8249 8249 144
Width: 350
VWidth: 0
Flags: HMW
LayerCount: 2
Fore
SplineSet
65 245 m 1
 40 255 l 1
 250 480 l 1
 270 455 l 1
 65 245 l 1
40 255 m 1
 65 275 l 5
 270 55 l 5
 250 30 l 1
 40 255 l 1
EndSplineSet
EndChar

StartChar: uni2031
Encoding: 8241 8241 146
Width: 1531
VWidth: 0
Flags: HMW
LayerCount: 2
Fore
SplineSet
1209 150 m 0
 1209 75 1261 20 1338 20 c 0
 1415 20 1467 75 1467 150 c 0
 1467 225 1415 280 1338 280 c 0
 1261 280 1209 225 1209 150 c 0
1180 150 m 0
 1180 239 1243 308 1338 308 c 0
 1433 308 1496 239 1496 150 c 0
 1496 61 1433 -8 1338 -8 c 0
 1243 -8 1180 61 1180 150 c 0
819 150 m 0
 819 75 871 20 948 20 c 0
 1025 20 1077 75 1077 150 c 0
 1077 225 1025 280 948 280 c 0
 871 280 819 225 819 150 c 0
790 150 m 0
 790 239 853 308 948 308 c 0
 1043 308 1106 239 1106 150 c 0
 1106 61 1043 -8 948 -8 c 0
 853 -8 790 61 790 150 c 0
64 550 m 0
 64 475 116 420 193 420 c 0
 270 420 322 475 322 550 c 0
 322 625 270 680 193 680 c 0
 116 680 64 625 64 550 c 0
429 150 m 0
 429 75 481 20 558 20 c 0
 635 20 687 75 687 150 c 0
 687 225 635 280 558 280 c 0
 481 280 429 225 429 150 c 0
400 150 m 0
 400 239 463 308 558 308 c 0
 653 308 716 239 716 150 c 0
 716 61 653 -8 558 -8 c 0
 463 -8 400 61 400 150 c 0
35 550 m 0
 35 639 98 708 193 708 c 0
 288 708 351 639 351 550 c 0
 351 461 288 392 193 392 c 0
 98 392 35 461 35 550 c 0
603 700 m 1
 638 700 l 1
 148 0 l 1
 113 0 l 1
 603 700 l 1
EndSplineSet
EndChar

StartChar: Euro
Encoding: 8364 8364 148
Width: 700
VWidth: 0
Flags: HMW
LayerCount: 2
Fore
SplineSet
95 350 m 4
 95 157 192 20 340 20 c 4
 396.579101562 20 449.0546875 34.859375 490 74.4482421875 c 5
 490 30.6275079723 l 1
 445.01305801 4.46127087709 393.847309087 -10 340 -10 c 0
 166 -10 60 141 60 350 c 0
 60 559 166 710 340 710 c 0
 393.847309087 710 445.01305801 695.538729123 490 669.372492028 c 1
 490 625.551757812 l 1
 449.0546875 665.140625 396.579101562 680 340 680 c 4
 182 680 95 543 95 350 c 4
EndSplineSet
Refer: 62 45 N 2.375 0 0 0.64 -26.875 159 2
Refer: 62 45 N 2.505 0 0 0.64 -27.525 279 2
EndChar

StartChar: fraction
Encoding: 8260 8260 149
Width: 705
VWidth: 0
Flags: HMW
LayerCount: 2
Fore
SplineSet
620 700 m 1
 645 700 l 1
 85 0 l 5
 60 0 l 1
 620 700 l 1
EndSplineSet
EndChar

StartChar: AE
Encoding: 198 198 191
Width: 975
VWidth: 0
Flags: HMW
LayerCount: 2
Fore
SplineSet
227 246 m 5
 227 275 l 1
 537 275 l 1
 537 246 l 5
 227 246 l 5
495 700 m 1
 530 700 l 1
 65 0 l 1
 25 0 l 1
 495 700 l 1
537 0 m 1
 537 27 l 1
 900 27 l 1
 900 0 l 1
 537 0 l 1
525 674 m 1
 525 700 l 1
 900 700 l 1
 900 674 l 1
 525 674 l 1
537 366 m 1
 537 394 l 1
 880 394 l 1
 880 366 l 1
 537 366 l 1
515 700 m 1
 545 700 l 1
 545 0 l 1
 515 0 l 1
 515 700 l 1
EndSplineSet
EndChar

StartChar: germandbls
Encoding: 223 223 219
Width: 570
VWidth: 0
Flags: HMW
LayerCount: 2
Fore
SplineSet
90 606 m 1
 120 606 l 1
 120 0 l 1
 90 0 l 1
 90 606 l 1
252 437 m 5
 252 455 l 1
 362 455 444 510 444 596 c 0
 444 702 387 758 277 758 c 0
 187 758 120 702 120 606 c 1
 90 606 l 1
 90 715 172 788 277 788 c 0
 412 788 475 715 475 606 c 0
 475 507 407 437 252 437 c 5
272 20 m 1
 392 20 481 103 481 229 c 0
 481 355 362 430 252 430 c 1
 252 448 l 1
 407 448 515 364 515 225 c 0
 515 86 407 -10 272 -10 c 1
 272 20 l 1
EndSplineSet
EndChar

StartChar: ae
Encoding: 230 230 220
Width: 821
VWidth: 0
Flags: HMW
LayerCount: 2
Fore
SplineSet
370 330 m 1
 400 320 l 5
 400 120 l 1
 370 160 l 1
 370 330 l 1
88 377 m 1
 72 403 l 1
 115 434 165 470 248 470 c 0
 358 470 395 419 395 330 c 1
 370 330 l 1
 370 406 328 440 248 440 c 0
 172 440 130 410 88 377 c 1
86 135 m 0
 86 59 133 18 213 18 c 0
 293 18 370 74 370 160 c 1
 388 140 l 1
 388 61 313 -10 208 -10 c 0
 133 -10 55 31 55 135 c 0
 55 232 145 281 236 281 c 0
 314 281 369 254 393 230 c 1
 393 202 l 1
 345 237 294 253 236 253 c 0
 152 253 86 211 86 135 c 0
370 230 m 1
 390 270 l 1
 403 250 l 1
 403 230 l 1
 370 230 l 1
401 223 m 1
 401 253 l 1
 770 253 l 1
 780 223 l 1
 401 223 l 1
780 223 m 1
 749 250 l 1
 749 347 683 438 581 438 c 0
 481 438 403 346 403 250 c 1
 370 230 l 1
 370 369 461 468 581 468 c 0
 698 468 781 379 781 234 c 0
 781 232 781 228 780 223 c 1
370 230 m 1
 401 230 l 1
 401 114 483 23 583 23 c 0
 678 23 723 78 752 133 c 1
 778 117 l 1
 741 46 680 -8 581 -8 c 0
 471 -8 370 91 370 230 c 1
EndSplineSet
EndChar

StartChar: dotlessi
Encoding: 305 305 227
Width: 226
VWidth: 0
Flags: HMW
LayerCount: 2
Fore
SplineSet
98 460 m 5
 128 460 l 5
 128 0 l 5
 98 0 l 5
 98 460 l 5
EndSplineSet
EndChar

StartChar: kgreenlandic
Encoding: 312 312 228
Width: 400
VWidth: 0
Flags: HMW
LayerCount: 2
Fore
SplineSet
105 270 m 1
 145 270 l 1
 385 0 l 1
 344 0 l 1
 105 270 l 1
320 460 m 1
 365 460 l 1
 145 270 l 1
 100 270 l 1
 320 460 l 1
80 470 m 5
 110 470 l 5
 110 0 l 1
 80 0 l 1
 80 470 l 5
EndSplineSet
EndChar

StartChar: thorn
Encoding: 254 254 243
Width: 550
VWidth: 0
Flags: HMW
LayerCount: 2
Fore
SplineSet
110 780 m 1
 110 -220 l 5
 80 -220 l 5
 80 780 l 1
 110 780 l 1
520 230 m 0
 520 83 422 -8 297 -8 c 0
 174 -8 94 101 94 230 c 0
 94 359 174 468 297 468 c 0
 422 468 520 377 520 230 c 0
489 230 m 0
 489 366 390 438 300 438 c 0
 190 438 110 346 110 230 c 0
 110 114 190 22 300 22 c 0
 390 22 489 94 489 230 c 0
EndSplineSet
EndChar

StartChar: breve
Encoding: 728 728 247
Width: 546
VWidth: 0
Flags: HMW
LayerCount: 2
Fore
SplineSet
115 850 m 1
 146 850 l 1
 146 794 193 740 273 740 c 0
 353 740 400 794 400 850 c 5
 431 850 l 1
 431 781 378 710 273 710 c 0
 168 710 115 781 115 850 c 1
EndSplineSet
EndChar

StartChar: eth
Encoding: 240 240 302
Width: 556
VWidth: 0
Flags: HMW
LayerCount: 2
Fore
SplineSet
236 700 m 1
 449 387 l 1
 423 375 l 1
 201 700 l 1
 236 700 l 1
501 230 m 0
 501 86 403 -8 278 -8 c 0
 153 -8 55 86 55 230 c 0
 55 369 154 462 262 462 c 0
 335.3203125 462 394.96484375 430.188476562 409 402.0078125 c 1
 437.711914062 386.671875 427.07421875 417.928710938 449 387 c 0
 477.081054688 347.388671875 501 286.768554688 501 230 c 0
470 230 m 0
 470 356 368 435 278 435 c 0
 163 435 87 346 87 230 c 0
 87 114 158 22 278 22 c 0
 388 22 470 104 470 230 c 0
EndSplineSet
Refer: 62 45 N 1.5 0 0 1 137.5 320 2
EndChar

StartChar: OE
Encoding: 338 338 308
Width: 950
VWidth: 0
Flags: HW
LayerCount: 2
Fore
SplineSet
523 700 m 5
 523 670 l 5
 375 670 l 5
 375 700 l 5
 523 700 l 5
523 30 m 5
 523 0 l 5
 375 0 l 5
 375 30 l 5
 523 30 l 5
375 670 m 5
 187 670 72 548 72 350 c 4
 72 162 187 30 375 30 c 5
 375 0 l 5
 171 0 40 141 40 350 c 4
 40 559 171 700 375 700 c 5
 375 670 l 5
537 0 m 5
 537 29 l 5
 875 29 l 5
 875 0 l 5
 537 0 l 5
537 671 m 5
 537 700 l 5
 875 700 l 5
 875 671 l 5
 537 671 l 5
537 366 m 5
 537 394 l 5
 855 394 l 5
 855 366 l 5
 537 366 l 5
515 700 m 5
 545 700 l 5
 545 0 l 5
 515 0 l 5
 515 700 l 5
EndSplineSet
EndChar

StartChar: oe
Encoding: 339 339 309
Width: 895
VWidth: 0
Flags: HW
LayerCount: 2
Fore
SplineSet
40 230 m 0
 40 371 132 468 257 468 c 0
 382 468 468 371 468 230 c 4
 468 89 382 -8 257 -8 c 0
 132 -8 40 89 40 230 c 0
70 230 m 0
 70 106 150 22 257 22 c 0
 364 22 444 106 444 230 c 0
 444 354 364 438 257 438 c 0
 150 438 70 354 70 230 c 0
449 230 m 1
 464 270 l 1
 477 250 l 1
 477 230 l 1
 449 230 l 1
475 223 m 1
 475 253 l 1
 844 253 l 1
 854 223 l 1
 475 223 l 1
854 223 m 1
 823 250 l 1
 823 347 757 438 655 438 c 0
 555 438 477 346 477 250 c 1
 449 230 l 1
 449 369 535 468 655 468 c 0
 772 468 855 379 855 234 c 0
 855 232 855 228 854 223 c 1
449 230 m 1
 475 230 l 1
 475 114 557 23 657 23 c 0
 752 23 797 78 826 133 c 1
 852 117 l 1
 815 46 754 -8 655 -8 c 0
 545 -8 449 91 449 230 c 1
EndSplineSet
EndChar

StartChar: a.alt
Encoding: 65536 -1 311
Width: 565
VWidth: 0
Flags: HW
LayerCount: 2
Fore
SplineSet
455 460 m 1
 485 460 l 1
 485 0 l 1
 455 0 l 1
 455 460 l 1
45 230 m 0
 45 377 143 468 268 468 c 0
 391 468 471 359 471 230 c 0
 471 101 391 -8 268 -8 c 0
 143 -8 45 83 45 230 c 0
76 230 m 0
 76 94 175 22 265 22 c 0
 375 22 455 114 455 230 c 0
 455 346 375 438 265 438 c 0
 175 438 76 366 76 230 c 0
EndSplineSet
EndChar
